<?xml version="1.0" encoding="UTF-8"?><svg id="Layer_1" xmlns="http://www.w3.org/2000/svg" width="329.707" height="65" viewBox="0 0 329.707 65"><defs><style>.cls-1{fill:#fff;}.cls-2{fill:#e10600;}.cls-3{fill:none;stroke:#fff;stroke-miterlimit:10;stroke-width:2px;}.cls-4{fill:#ff140a;}</style></defs><g id="Designation"><path class="cls-1" d="M86.739,64.908h-1.029c-2.38,0-3.399-1.329-3.399-3.368v-1.236c0-2.06,1.02-3.379,3.399-3.379h1.029c2.369,0,3.399,1.318,3.399,3.379v1.236c0,2.039-1.03,3.368-3.399,3.368Zm-1.184-1.03h1.339c1.421,0,1.957-.68,1.957-2.06v-1.802c0-1.39-.536-2.06-1.957-2.06h-1.339c-1.411,0-1.957,.67-1.957,2.06v1.802c0,1.38,.546,2.06,1.957,2.06Z"/><path class="cls-1" d="M91.858,59.582h-.999v-.978h.999v-.093c0-1.164,.628-1.658,1.782-1.658h1.648v.896h-1.638c-.494,0-.7,.165-.7,.69v.165h2.441v.978h-2.4v5.202h-1.133v-5.202h0Z"/><path class="cls-1" d="M95.823,59.582h-.999v-.978h.999c0-1.226,.669-1.751,1.885-1.751h1.545v.896h-1.638c-.494,0-.7,.165-.7,.69v.165h2.338v.978h-2.297v5.202h-1.133v-5.202Z"/><path class="cls-1" d="M100.386,57.759v-1.112h1.133v1.112h-1.133Zm0,.845h1.133v6.18h-1.133v-6.18Z"/><path class="cls-1" d="M104.299,61.035v1.308c0,1.112,.433,1.462,1.525,1.462h2.667v.978h-2.719c-1.586,0-2.657-.855-2.657-2.585v-1.01c0-1.73,1.071-2.585,2.657-2.585h2.719v.978h-2.667c-1.092,0-1.525,.35-1.525,1.452h0Z"/><path class="cls-1" d="M109.984,57.759v-1.112h1.133v1.112h-1.133Zm0,.845h1.133v6.18h-1.133v-6.18Z"/><path class="cls-1" d="M118.256,64.784h-3.811c-1.185,0-1.885-.463-1.885-1.473,0-.669,.515-1.112,1.38-1.761l2.606-1.967h-3.914v-.978h3.285c1.576,0,2.338,.865,2.338,2.235v3.945h0Zm-1.133-1.03v-3.368l-2.77,2.101c-.382,.288-.618,.422-.618,.783,0,.34,.299,.484,.659,.484h2.729Z"/><path class="cls-1" d="M121.139,57.059v7.725h-1.133v-7.725h1.133Z"/><path class="cls-1" d="M132.427,59.655c0,1.679-1.339,2.143-2.822,2.143h-2.75v2.987h-1.185v-7.725h3.935c1.483,0,2.822,.463,2.822,2.142v.453h0Zm-1.236-.474c0-.752-.34-1.092-1.401-1.092h-2.935v2.678h2.935c1.061,0,1.401-.34,1.401-1.092v-.494h0Z"/><path class="cls-1" d="M139.05,64.784h-3.811c-1.185,0-1.885-.463-1.885-1.473,0-.669,.515-1.112,1.38-1.761l2.606-1.967h-3.914v-.978h3.285c1.576,0,2.338,.865,2.338,2.235v3.945h0Zm-1.133-1.03v-3.368l-2.771,2.101c-.381,.288-.618,.422-.618,.783,0,.34,.299,.484,.659,.484h2.729Z"/><path class="cls-1" d="M142.788,58.604h1.586v.978h-1.638c-.649,0-.906,.206-.906,.834v4.367h-1.133v-4.275c0-1.256,.875-1.905,2.091-1.905Z"/><path class="cls-1" d="M143.786,58.604h1.029v-1.205h1.102v1.205h2.297v.978h-2.297v3.533c0,.525,.206,.69,.701,.69h1.596v.978h-1.586c-1.154,0-1.844-.566-1.844-1.73v-3.471h-.999v-.978h0Z"/><path class="cls-1" d="M149.502,58.604h3.482c1.555,0,2.235,.762,2.235,2.215v3.966h-1.133v-4.089c0-.814-.289-1.061-1.02-1.061h-2.431v5.15h-1.133v-6.18h0Z"/><path class="cls-1" d="M157.896,62.085v.505c0,.824,.505,1.215,1.565,1.215h3.1v.978h-2.946c-1.7,0-2.905-.721-2.905-2.451v-1.082c0-1.823,.968-2.74,2.791-2.74h.566c1.802,0,2.689,.803,2.689,2.431v1.143h-4.862Zm1.453-2.595c-1.051,0-1.453,.391-1.453,1.607v.051h3.677v-.36c0-.927-.278-1.298-1.359-1.298h-.865Z"/><path class="cls-1" d="M166.342,58.604h1.792v.978h-1.844c-.649,0-.906,.206-.906,.834v4.367h-1.133v-4.275c0-1.256,.875-1.905,2.091-1.905Z"/><path class="cls-1" d="M178.042,62.198c0,1.73-.957,2.719-2.791,2.719h-.773c-1.926,0-2.791-.989-2.791-2.719v-1.01c0-1.73,.865-2.719,2.791-2.719h.773c1.833,0,2.791,.989,2.791,2.719v1.01Zm-2.647-2.75h-1.071c-1.051,0-1.453,.484-1.453,1.586v1.318c0,1.102,.402,1.586,1.453,1.586h1.071c1.112,0,1.462-.484,1.462-1.586v-1.318c0-1.102-.35-1.586-1.462-1.586Z"/><path class="cls-1" d="M179.864,59.582h-.999v-.978h.999c0-1.226,.669-1.751,1.885-1.751h1.545v.896h-1.638c-.494,0-.7,.165-.7,.69v.165h2.338v.978h-2.297v5.202h-1.133v-5.202Z"/><path class="cls-1" d="M187.105,57.059h6.19v1.03h-5.005v2.256h5.005v1.03h-5.005v3.409h-1.185v-7.725h0Z"/><path class="cls-1" d="M200.7,62.198c0,1.73-.957,2.719-2.791,2.719h-.773c-1.926,0-2.791-.989-2.791-2.719v-1.01c0-1.73,.865-2.719,2.791-2.719h.773c1.833,0,2.791,.989,2.791,2.719v1.01Zm-2.647-2.75h-1.071c-1.051,0-1.453,.484-1.453,1.586v1.318c0,1.102,.402,1.586,1.453,1.586h1.071c1.112,0,1.462-.484,1.462-1.586v-1.318c0-1.102-.35-1.586-1.462-1.586Z"/><path class="cls-1" d="M204.284,58.604h1.792v.978h-1.844c-.649,0-.906,.206-.906,.834v4.367h-1.133v-4.275c0-1.256,.875-1.905,2.091-1.905Z"/><path class="cls-1" d="M207.106,58.604h7.148c1.545,0,2.225,.865,2.225,2.091v4.089h-1.133v-4.141c0-.772-.288-1.009-1.02-1.009h-1.968v5.15h-1.133v-5.15h-2.987v5.15h-1.133v-6.18h0Z"/><path class="cls-1" d="M223.842,64.784h-3.481c-1.556,0-2.235-.762-2.235-2.215v-3.966h1.133v4.089c0,.814,.288,1.061,1.02,1.061h2.431v-5.15h1.133v6.18h0Z"/><path class="cls-1" d="M226.726,57.059v7.725h-1.133v-7.725h1.133Z"/><path class="cls-1" d="M233.863,64.784h-3.811c-1.185,0-1.885-.463-1.885-1.473,0-.669,.515-1.112,1.38-1.761l2.606-1.967h-3.914v-.978h3.285c1.576,0,2.338,.865,2.338,2.235v3.945h0Zm-1.133-1.03v-3.368l-2.771,2.101c-.381,.288-.618,.422-.618,.783,0,.34,.299,.484,.659,.484h2.729Z"/><path class="cls-1" d="M237.828,63.754h2.338v-5.325c0-.216-.103-.34-.309-.34h-1.792v-1.03h1.977c.927,0,1.308,.443,1.308,1.359v5.335h2.06v1.03h-5.583v-1.03h0Z"/><path class="cls-1" d="M246.313,60.189h-.708c-1.014,0-1.453-.564-1.453-1.429v-.54c0-.883,.438-1.447,1.453-1.447h.708c1.015,0,1.453,.564,1.453,1.447v.54c0,.865-.438,1.429-1.453,1.429Zm-.787-.397h.865c.631,0,.913-.3,.913-.912v-.799c0-.612-.282-.912-.913-.912h-.865c-.624,0-.913,.3-.913,.912v.799c0,.612,.288,.912,.913,.912Zm.745-.354l-.552-.769c-.102-.132-.061-.36,.186-.36h.246c.228,0,.3-.03,.3-.186v-.036c0-.156-.072-.192-.3-.192h-.624v1.543h-.426v-1.91h1.123c.372,0,.66,.102,.66,.492v.066c0,.45-.252,.564-.672,.564h-.006l.595,.787h-.529Z"/></g><g id="Lenovo"><rect class="cls-4" x="206.117" y=".414" width="123.59" height="41.197"/><path class="cls-1" d="M259.959,14.298c-1.825,0-3.901,.846-5.17,2.54v-.003s0,.001,0,.001v-2.273s-4.354,0-4.354,0v15.856h4.354v-9.022c0-1.624,1.259-3.35,3.59-3.35,1.802,0,3.666,1.253,3.666,3.35v9.022h4.354v-9.829c0-3.646-2.609-6.292-6.439-6.292"/><polygon class="cls-1" points="297.343 14.565 293.407 25.366 289.471 14.565 284.498 14.565 291.022 30.415 295.792 30.415 302.316 14.565 297.343 14.565"/><path class="cls-1" d="M245.802,25.545c-1.833,1.356-2.88,1.68-4.551,1.68-1.504,0-2.681-.467-3.511-1.286l11.131-4.618c-.243-1.721-.896-3.258-1.901-4.427-1.462-1.699-3.627-2.598-6.262-2.598-4.788,0-8.398,3.532-8.398,8.196,0,4.785,3.618,8.195,8.877,8.195,2.946,0,5.959-1.396,7.368-3.028l-2.753-2.116h0Zm-8.365-6.203c.741-.996,1.923-1.58,3.349-1.58,1.569,0,2.759,.896,3.375,2.218l-7.606,3.155c-.208-1.619,.206-2.886,.883-3.794h0Z"/><polygon class="cls-1" points="231.895 26.422 221.999 26.422 221.999 9.823 217.587 9.823 217.587 30.42 231.895 30.42 231.895 26.422"/><path class="cls-1" d="M310.134,30.687c-4.762,0-8.492-3.547-8.492-8.194,0-4.595,3.756-8.195,8.551-8.195,4.761,0,8.492,3.547,8.492,8.195,0,4.594-3.756,8.194-8.55,8.194m0-12.659c-2.431,0-4.196,1.842-4.196,4.464,0,2.503,1.87,4.463,4.255,4.463,2.432,0,4.197-1.893,4.197-4.463,0-2.503-1.87-4.464-4.256-4.464"/><path class="cls-1" d="M276.613,30.687c-4.762,0-8.492-3.547-8.492-8.194,0-4.595,3.756-8.195,8.551-8.195,4.761,0,8.492,3.547,8.492,8.195,0,4.594-3.756,8.194-8.55,8.194m0-12.659c-2.432,0-4.196,1.842-4.196,4.464,0,2.503,1.87,4.463,4.255,4.463,2.432,0,4.197-1.893,4.197-4.463,0-2.503-1.87-4.464-4.256-4.464"/></g><g id="Separator"><line class="cls-3" x1="185.518" y1=".414" x2="185.518" y2="41.611"/></g><g id="F1_Logo"><path class="cls-2" d="M41.713,23.885l-18.273,17.726H.133L29.129,12.833C39.907,2.165,45.104,.414,63.487,.414h72.6l-15.756,15.428h-54.765c-13.732,0-16.654,1.058-23.854,8.042h0Zm76.266-5.58h-52.084c-13.83,0-15.994,1.058-22.267,7.331l-15.975,15.975h21.611l5.143-5.143c3.397-3.397,4.914-3.72,11.763-3.72h37.367l14.443-14.443h0Zm5.635,23.306L164.919,.414h-25.659l-41.197,41.197h25.55Z"/><path class="cls-2" d="M140.961,41.611c-1.299,0-2.38-.435-3.24-1.304-.861-.869-1.291-1.939-1.291-3.21s.428-2.338,1.283-3.202c.855-.863,1.932-1.296,3.232-1.296s2.374,.435,3.224,1.304c.849,.869,1.274,1.939,1.274,3.21s-.422,2.338-1.266,3.202-1.915,1.296-3.215,1.296h0Zm-.026-8.302c-1.066,0-1.958,.369-2.676,1.106-.718,.737-1.078,1.632-1.078,2.682s.359,1.945,1.078,2.682c.718,.737,1.61,1.106,2.676,1.106s1.958-.366,2.676-1.097c.718-.732,1.078-1.626,1.078-2.682s-.359-1.953-1.078-2.691c-.718-.737-1.611-1.106-2.676-1.106Zm-.881,4.539v1.766h-.992v-5.001h1.881c.65,0,1.137,.121,1.462,.363,.325,.242,.487,.605,.487,1.09s-.066,.845-.197,1.081c-.131,.237-.357,.427-.676,.569l.941,1.898h-1.043l-.855-1.766h-1.009Zm-.017-2.459v1.683h1.009c.308,0,.53-.066,.667-.198s.206-.347,.206-.644c0-.561-.354-.842-1.06-.842h-.821Z"/></g></svg>